<?xml version="1.0" standalone="no"?><!DOCTYPE svg PUBLIC "-//W3C//DTD SVG 1.1//EN" "http://www.w3.org/Graphics/SVG/1.1/DTD/svg11.dtd"><svg t="1567083436552" class="icon" viewBox="0 0 1024 1024" version="1.1" xmlns="http://www.w3.org/2000/svg" p-id="36716" xmlns:xlink="http://www.w3.org/1999/xlink" width="200" height="200"><defs><style type="text/css"></style></defs><path d="M248.7 775.3h526.6V248.7H248.7v526.6z m37.6-489h451.4v451.4H286.3V286.3z" fill="#6CB5F4" p-id="36717"></path><path d="M154.7 154.7h244.5V98.2H135.9c-21.2 0-37.7 16.9-37.7 37.7v263.2h56.4V154.7zM154.7 624.8H98.2V888c0 21.2 16.9 37.7 37.7 37.7h263.2v-56.4H154.7V624.8zM888.1 98.2H624.8v56.4h244.5v244.5h56.4V135.9c0.1-21.1-16.8-37.7-37.6-37.7zM869.3 869.3H624.8v56.4H888c21.2 0 37.7-16.9 37.7-37.7V624.8h-56.4v244.5z" fill="#6CB5F4" p-id="36718"></path></svg>