<?xml version="1.0" standalone="no"?><!DOCTYPE svg PUBLIC "-//W3C//DTD SVG 1.1//EN" "http://www.w3.org/Graphics/SVG/1.1/DTD/svg11.dtd"><svg t="1567082789561" class="icon" viewBox="0 0 1024 1024" version="1.1" xmlns="http://www.w3.org/2000/svg" p-id="20282" xmlns:xlink="http://www.w3.org/1999/xlink" width="200" height="200"><defs><style type="text/css"></style></defs><path d="M889.270295 1023.99267H134.782346A133.399706 133.399706 0 0 1 0.016659 889.2603V134.772351A133.433023 133.433023 0 0 1 134.782346 0.006663h754.487949a133.433023 133.433023 0 0 1 134.699054 134.765688v754.487949a133.399706 133.399706 0 0 1-134.699054 134.73237zM134.782346 53.912938c-45.810339 0-80.892729 35.049074-80.892729 80.859413v754.487949c0 45.810339 35.08239 80.826096 80.892729 80.826095h754.487949c45.810339 0 80.826096-35.015757 80.826096-80.826095V134.772351c0-45.810339-35.015757-80.859412-80.826096-80.859413H134.782346z" p-id="20283"></path><path d="M511.993004 835.354025c-177.844064 0-323.3377-145.493636-323.3377-323.3377 0-177.877381 145.493636-323.371016 323.3377-323.371016s323.404333 145.493636 323.404333 323.371016c0 177.844064-145.560269 323.3377-323.404333 323.3377z m0-606.295668a282.957968 282.957968 0 1 0 0.066633 565.915937 282.957968 282.957968 0 0 0-0.066633-565.915937z" p-id="20284"></path><path d="M511.993004 291.027251c123.971106 0 220.989074 99.716614 220.989074 220.989074S633.298781 732.972082 511.993004 732.972082" p-id="20285"></path></svg>