<?xml version="1.0" standalone="no"?><!DOCTYPE svg PUBLIC "-//W3C//DTD SVG 1.1//EN" "http://www.w3.org/Graphics/SVG/1.1/DTD/svg11.dtd"><svg t="1567082191688" class="icon" viewBox="0 0 1024 1024" version="1.1" xmlns="http://www.w3.org/2000/svg" p-id="16112" xmlns:xlink="http://www.w3.org/1999/xlink" width="200" height="200"><defs><style type="text/css"></style></defs><path d="M512 302.4c-3.9-0.2-7.8-0.4-11.7-0.4C390.8 302 302 396 302 512s88.8 210 198.3 210c3.9 0 7.8-0.1 11.7-0.4V302.4zM173.3 171.1c11-11 28.9-11.1 39.9 0l60 60.1c11 11.1 11 29 0 40s-28.9 11.1-39.9 0l-60-60.1c-11.1-11-11.1-29 0-40zM32 514v-4c0-16.6 13.4-30 30-30h68c16.6 0 30 13.4 30 30v4c0 16.6-13.4 30-30 30H62c-16.6 0-30-13.4-30-30z m141.3 334.7c-11-11.1-11-29 0-40l60-60.1c11-11 28.9-11.1 39.9 0s11 29 0 40l-60 60.1c-11 11-28.9 11-39.9 0zM514 992h-4c-16.6 0-30-13.4-30-30v-68c0-16.6 13.4-30 30-30h4c16.6 0 30 13.4 30 30v68c0 16.6-13.4 30-30 30z m337.3-144c-11 11-28.9 11.1-39.9 0l-60-60.1c-11-11.1-11-29 0-40s28.9-11.1 39.9 0l60 60.1c11.1 11.1 11.1 29 0 40zM992 510v4c0 16.6-13.4 30-30 30h-68c-16.6 0-30-13.4-30-30v-4c0-16.6 13.4-30 30-30h68c16.6 0 30 13.4 30 30zM852.4 170c11 11.1 11 29 0 40l-60 60.1c-11 11-28.9 11.1-39.9 0s-11-29 0-40l60-60.1c10.9-11.1 28.8-11.1 39.9 0zM510 32h4c16.6 0 30 13.4 30 30v68c0 16.6-13.4 30-30 30h-4c-16.6 0-30-13.4-30-30V62c0-16.6 13.4-30 30-30z m2 768c-159.1 0-288-128.9-288-288s128.9-288 288-288 288 128.9 288 288-128.9 288-288 288z" fill="#1296db" p-id="16113"></path></svg>