<?xml version="1.0" standalone="no"?><!DOCTYPE svg PUBLIC "-//W3C//DTD SVG 1.1//EN" "http://www.w3.org/Graphics/SVG/1.1/DTD/svg11.dtd"><svg t="1567083229307" class="icon" viewBox="0 0 1024 1024" version="1.1" xmlns="http://www.w3.org/2000/svg" p-id="34931" xmlns:xlink="http://www.w3.org/1999/xlink" width="200" height="200"><defs><style type="text/css"></style></defs><path d="M748.8 768c-70.4 57.6-153.6 96-236.8 96-204.8 0-384-236.8-441.6-320-6.4-19.2-6.4-44.8 0-64 25.6-44.8 89.6-128 166.4-198.4l-64-64c-12.8-12.8-12.8-32 0-44.8 12.8-12.8 32-12.8 44.8 0l76.8 76.8C358.4 192 435.2 160 512 160c204.8 0 384 236.8 441.6 320 12.8 19.2 12.8 38.4 0 57.6-25.6 38.4-83.2 115.2-153.6 185.6l89.6 83.2c12.8 12.8 12.8 32 0 44.8s-32 12.8-44.8 0L748.8 768z m6.4-89.6c64-64 115.2-134.4 140.8-166.4-51.2-76.8-211.2-288-384-288-64 0-121.6 25.6-172.8 64l416 390.4z m-51.2 44.8L288 326.4C211.2 390.4 160 473.6 128 512c51.2 76.8 211.2 288 384 288 70.4 0 134.4-32 192-76.8z" fill="#FFFFFF" p-id="34932"></path><path d="M748.8 768c-70.4 57.6-153.6 96-236.8 96-204.8 0-384-236.8-441.6-320-6.4-19.2-6.4-44.8 0-64 25.6-44.8 89.6-128 166.4-198.4l-64-64c-12.8-12.8-12.8-32 0-44.8 12.8-12.8 32-12.8 44.8 0l76.8 76.8C358.4 192 435.2 160 512 160c204.8 0 384 236.8 441.6 320 12.8 19.2 12.8 38.4 0 57.6-25.6 38.4-83.2 115.2-153.6 185.6l89.6 83.2c12.8 12.8 12.8 32 0 44.8s-32 12.8-44.8 0L748.8 768z m6.4-89.6c64-64 115.2-134.4 140.8-166.4-51.2-76.8-211.2-288-384-288-64 0-121.6 25.6-172.8 64l416 390.4z m-51.2 44.8L288 326.4C211.2 390.4 160 473.6 128 512c51.2 76.8 211.2 288 384 288 70.4 0 134.4-32 192-76.8z" fill="#00B4ED" p-id="34933"></path></svg>