<?xml version="1.0" standalone="no"?><!DOCTYPE svg PUBLIC "-//W3C//DTD SVG 1.1//EN" "http://www.w3.org/Graphics/SVG/1.1/DTD/svg11.dtd"><svg t="1567082078180" class="icon" viewBox="0 0 1024 1024" version="1.1" xmlns="http://www.w3.org/2000/svg" p-id="14447" xmlns:xlink="http://www.w3.org/1999/xlink" width="200" height="200"><defs><style type="text/css"></style></defs><path d="M945.245091 689.245091c10.845091 0 19.688727 8.843636 19.688727 19.688727v236.311273c0 10.845091-8.843636 19.688727-19.688727 19.688727H78.754909a19.688727 19.688727 0 0 1-19.688727-19.688727V708.887273c0-10.891636 8.843636-19.688727 19.688727-19.688728h866.490182z m0-59.112727H78.754909c-43.473455 0-78.754909 35.281455-78.754909 78.801454v236.311273C0 988.718545 35.281455 1024 78.754909 1024h866.490182c43.473455 0 78.754909-35.281455 78.754909-78.754909V708.887273c0-43.52-35.281455-78.801455-78.754909-78.801455z m0-571.066182c10.845091 0 19.688727 8.843636 19.688727 19.688727v393.867636a20.107636 20.107636 0 0 1-19.316363 20.061091h-276.061091a19.688727 19.688727 0 0 1-19.688728-20.061091V78.754909a20.107636 20.107636 0 0 1 19.688728-19.688727h275.688727z m0-59.066182h-275.688727c-43.52 0-78.801455 35.281455-78.801455 78.754909v393.867636c0 43.473455 35.281455 78.754909 78.801455 78.75491h275.688727c43.473455 0 78.754909-35.281455 78.754909-78.75491V78.754909C1024 35.281455 988.718545 0 945.245091 0z m-512 59.112727c10.845091 0 19.688727 8.797091 19.688727 19.642182v78.801455c0 10.845091-8.843636 19.688727-19.688727 19.688727H78.754909a19.688727 19.688727 0 0 1-19.688727-19.688727V78.754909c0-10.845091 8.843636-19.688727 19.688727-19.688727h354.490182z m0-59.112727H78.754909C35.281455 0 0 35.281455 0 78.754909v78.801455c0 43.473455 35.281455 78.754909 78.754909 78.754909h354.490182c43.473455 0 78.754909-35.281455 78.754909-78.754909V78.754909C512 35.281455 476.718545 0 433.245091 0z m0 374.132364c10.845091 0 19.688727 8.843636 19.688727 19.735272v78.754909c0 10.891636-8.843636 19.688727-19.688727 19.688728H78.754909a19.688727 19.688727 0 0 1-19.688727-19.688728V393.867636a19.688727 19.688727 0 0 1 19.688727-19.735272h354.490182z m0-59.066182H78.754909C35.281455 315.112727 0 350.347636 0 393.867636v78.754909c0 43.473455 35.281455 78.754909 78.754909 78.75491h354.490182c43.473455 0 78.754909-35.281455 78.754909-78.75491V393.867636c0-43.52-35.281455-78.801455-78.754909-78.801454z" p-id="14448"></path></svg>