<?xml version="1.0" standalone="no"?><!DOCTYPE svg PUBLIC "-//W3C//DTD SVG 1.1//EN" "http://www.w3.org/Graphics/SVG/1.1/DTD/svg11.dtd"><svg t="1567082911686" class="icon" viewBox="0 0 1077 1024" version="1.1" xmlns="http://www.w3.org/2000/svg" p-id="22478" xmlns:xlink="http://www.w3.org/1999/xlink" width="210.3515625" height="200"><defs><style type="text/css"></style></defs><path d="M1077.894737 1024H0v-284.456421h1077.894737V1024zM290.492632 682.846316H53.733053V0h703.703579l-54.218106 56.697263H107.897263v568.912842h203.722105L290.492632 682.846316zM474.812632 418.384842L840.003368 33.360842c10.509474-11.156211 22.474105-19.456 35.786106-25.007158 12.934737-5.551158 26.516211-8.353684 40.528842-8.353684 14.389895 0 28.025263 3.125895 41.067789 9.431579 12.934737 5.928421 24.360421 14.066526 34.169263 24.46821 9.862737 9.970526 17.785263 22.042947 23.713685 36.109474 5.605053 13.689263 8.407579 28.348632 8.407579 43.870316 0 14.443789-2.640842 28.725895-7.868632 42.792421-5.281684 14.066526-12.988632 26.516211-23.174737 37.187368l-374.730105 392.353685-238.969263 92.16L474.812632 418.438737z m395.264-336.141474l75.776 80.572632 8.407579-8.892632a60.901053 60.901053 0 0 0 12.126315-18.32421c2.425263-7.060211 3.664842-14.282105 3.664842-21.719579 0-7.760842-1.401263-14.982737-4.203789-21.665684a57.667368 57.667368 0 0 0-28.941474-31.097263 51.253895 51.253895 0 0 0-21.018947-4.419369 46.511158 46.511158 0 0 0-20.048842 4.419369 44.463158 44.463158 0 0 0-17.354105 12.234105l-8.407579 8.892631zM539.486316 430.618947a210.297263 210.297263 0 0 1 76.314947 80.572632l292.109474-308.385684-76.314948-80.572632-292.109473 308.385684z m31.582316 112.74779a151.659789 151.659789 0 0 0-62.140632-65.536l-37.888 104.448 100.028632-38.912z" p-id="22479"></path><path d="M26.839579 995.651368v-227.813052h1024.215579v227.813052z" p-id="22480"></path><path d="M1077.894737 739.543579V1024H0v-284.456421h1077.894737z m-53.679158 56.643368H53.679158v171.11579h970.536421v-171.11579z" p-id="22481"></path><path d="M1077.894737 739.543579V1024H0v-284.456421zM290.492632 682.846316H53.733053V0h703.703579l-54.218106 56.697263H107.897263v568.912842h203.722105z" p-id="22482"></path><path d="M474.758737 418.384842L840.003368 33.360842c10.509474-11.156211 22.474105-19.456 35.786106-25.007158 12.934737-5.551158 26.516211-8.353684 40.528842-8.353684 14.389895 0 28.025263 3.125895 41.067789 9.431579 12.934737 5.928421 24.360421 14.066526 34.169263 24.46821 9.862737 9.970526 17.785263 22.042947 23.713685 36.109474 5.605053 13.689263 8.407579 28.348632 8.407579 43.870316 0 14.443789-2.640842 28.725895-7.868632 42.792421-5.281684 14.066526-12.988632 26.516211-23.174737 37.187368l-374.730105 392.353685-238.969263 92.16L474.812632 418.438737z m395.264-336.141474l75.776 80.572632 8.407579-8.892632a60.901053 60.901053 0 0 0 12.126316-18.32421c2.425263-7.060211 3.664842-14.282105 3.664842-21.719579 0-7.760842-1.401263-14.982737-4.20379-21.665684a57.667368 57.667368 0 0 0-28.941473-31.097263 51.253895 51.253895 0 0 0-21.018948-4.419369 46.511158 46.511158 0 0 0-20.048842 4.419369 44.463158 44.463158 0 0 0-17.354105 12.234105l-8.407579 8.892631zM539.486316 430.618947a210.297263 210.297263 0 0 1 76.314947 80.572632l292.109474-308.385684-76.314948-80.572632-292.109473 308.385684z m31.582316 112.74779a151.659789 151.659789 0 0 0-62.140632-65.536l-37.888 104.448 100.028632-38.912z" p-id="22483"></path></svg>