<?xml version="1.0" standalone="no"?><!DOCTYPE svg PUBLIC "-//W3C//DTD SVG 1.1//EN" "http://www.w3.org/Graphics/SVG/1.1/DTD/svg11.dtd"><svg t="1567081769133" class="icon" viewBox="0 0 1024 1024" version="1.1" xmlns="http://www.w3.org/2000/svg" p-id="12782" xmlns:xlink="http://www.w3.org/1999/xlink" width="200" height="200"><defs><style type="text/css"></style></defs><path d="M505.667 960.947c-15.882 0-28.771-12.88-28.771-28.771V93.254c0-15.892 12.89-28.771 28.771-28.771 15.892 0 28.781 12.879 28.781 28.771v838.922c0 15.891-12.889 28.771-28.781 28.771z" fill="#5CC2E4" p-id="12783"></path><path d="M573.087 894.189c-9.205 0-18.232-4.397-23.804-12.576l-43.616-64.02-43.617 64.02c-8.948 13.139-26.865 16.518-39.98 7.588-13.137-8.949-16.534-26.855-7.586-39.983l67.4-98.925a28.76 28.76 0 0 1 47.555 0l67.402 98.925c8.938 13.128 5.55 31.034-7.578 39.983a28.639 28.639 0 0 1-16.176 4.988zM505.667 287.433a28.778 28.778 0 0 1-23.783-12.573l-67.4-98.926c-8.948-13.127-5.551-31.023 7.586-39.982 13.115-8.938 31.013-5.561 39.98 7.586l43.617 64.012 43.616-64.012c8.949-13.155 26.847-16.533 39.98-7.586 13.128 8.959 16.516 26.855 7.578 39.982l-67.402 98.926a28.783 28.783 0 0 1-23.772 12.573zM933.888 550.257H94.968c-15.883 0-28.762-12.89-28.762-28.771 0-15.892 12.879-28.781 28.762-28.781h838.92c15.883 0 28.772 12.89 28.772 28.781 0 15.881-12.889 28.771-28.772 28.771z" fill="#5CC2E4" p-id="12784"></path><path d="M161.755 617.646c-9.206 0-18.243-4.395-23.804-12.573-8.947-13.137-5.561-31.043 7.575-39.981l64.023-43.616-64.023-43.616c-13.136-8.948-16.522-26.855-7.575-39.981 8.938-13.146 26.845-16.524 39.972-7.576l98.937 67.391c7.862 5.364 12.563 14.261 12.563 23.783s-4.701 18.419-12.563 23.773l-98.937 67.399a28.626 28.626 0 0 1-16.168 4.997zM867.378 617.646a28.652 28.652 0 0 1-16.18-4.998l-98.925-67.399c-7.862-5.354-12.564-14.251-12.564-23.773s4.702-18.419 12.564-23.783l98.925-67.391c13.128-8.948 31.035-5.57 39.982 7.576 8.949 13.126 5.552 31.033-7.585 39.981l-64.013 43.616 64.013 43.616c13.137 8.948 16.534 26.845 7.585 39.981-5.571 8.18-14.606 12.574-23.802 12.574z" fill="#5CC2E4" p-id="12785"></path><path d="M796.067 840.645c-7.368 0-14.718-2.803-20.347-8.424L182.517 239.008c-11.24-11.23-11.24-29.453 0-40.684 11.239-11.239 29.452-11.239 40.692 0l593.204 593.205c11.238 11.238 11.238 29.463 0 40.691-5.609 5.622-12.977 8.425-20.346 8.425z" fill="#5CC2E4" p-id="12786"></path><path d="M701.17 841.121c-13.553 0-25.621-9.619-28.229-23.419L650.64 700.088a28.754 28.754 0 0 1 7.921-25.7 28.741 28.741 0 0 1 25.71-7.93l117.604 22.302c15.625 2.954 25.877 18.006 22.915 33.621-2.964 15.625-17.987 25.896-33.631 22.915l-76.112-14.431 14.431 76.109c2.963 15.616-7.298 30.68-22.915 33.633a28.717 28.717 0 0 1-5.393 0.514zM319.824 364.414a28.89 28.89 0 0 1-5.363-0.505l-117.613-22.301c-15.616-2.953-25.868-18.017-22.904-33.631 2.952-15.605 17.995-25.888 33.62-22.904l76.121 14.431-14.43-76.113c-2.953-15.614 7.309-30.676 22.913-33.63 15.606-2.973 30.679 7.29 33.632 22.904l22.292 117.613a28.78 28.78 0 0 1-28.268 34.136z" fill="#5CC2E4" p-id="12787"></path><path d="M215.247 840.666a28.712 28.712 0 0 1-20.346-8.434c-11.23-11.23-11.23-29.455 0-40.684l593.224-593.205c11.24-11.229 29.452-11.229 40.694 0 11.238 11.229 11.238 29.453 0 40.693L235.594 832.232c-5.611 5.62-12.979 8.434-20.347 8.434z" fill="#5CC2E4" p-id="12788"></path><path d="M310.145 841.109c-1.778 0-3.575-0.168-5.392-0.512-15.607-2.953-25.858-18.007-22.905-33.623l14.431-76.119-76.112 14.431c-15.625 2.962-30.677-7.292-33.641-22.905-2.952-15.615 7.31-30.678 22.915-33.629l117.613-22.294a28.757 28.757 0 0 1 25.709 7.921 28.79 28.79 0 0 1 7.921 25.7l-22.291 117.613c-2.619 13.81-14.698 23.417-28.248 23.417zM691.49 364.414a28.769 28.769 0 0 1-20.347-8.436 28.733 28.733 0 0 1-7.921-25.7l22.302-117.613c2.964-15.614 18.045-25.868 33.63-22.904 15.617 2.954 25.87 18.016 22.905 33.63l-14.43 76.113 76.121-14.431c15.605-2.993 30.667 7.289 33.632 22.904 2.952 15.614-7.3 30.678-22.917 33.631l-117.612 22.301a28.963 28.963 0 0 1-5.363 0.505z" fill="#5CC2E4" p-id="12789"></path></svg>