<?xml version="1.0" standalone="no"?><!DOCTYPE svg PUBLIC "-//W3C//DTD SVG 1.1//EN" "http://www.w3.org/Graphics/SVG/1.1/DTD/svg11.dtd"><svg t="1567082968541" class="icon" viewBox="0 0 1434 1024" version="1.1" xmlns="http://www.w3.org/2000/svg" p-id="22726" xmlns:xlink="http://www.w3.org/1999/xlink" width="280.078125" height="200"><defs><style type="text/css"></style></defs><path d="M507.154712 387.550301h-0.538366c-54.200296-1.891554-80.30374-27.951347-92.657042-49.47141a102.522223 102.522223 0 0 1-13.444583-46.415824c-2.138911-32.374673 13.255428-77.291804 45.761055-133.485506a783.539843 783.539843 0 0 1 48.554734-73.799705 15.481641 15.481641 0 0 1 25.506878 1.222235c4.699784 7.595317 10.898261 16.776628 18.086165 27.398431 33.756963 49.907923 84.741616 125.337274 78.499489 186.172559a94.912356 94.912356 0 0 1-29.959304 60.529726c-19.774014 18.23167-47.361601 27.878595-79.794476 27.878595z m-0.654769-266.505399c-30.017506 43.214732-78.324883 123.285666-75.06559 168.857565v1.105831a73.086734 73.086734 0 0 0 9.923383 32.622031c12.367853 20.70524 34.586336 31.792657 66.029782 32.942139 53.589178-0.101853 75.76401-31.312493 78.659543-60.529726 5.107196-49.704217-42.09435-119.517108-73.334091-165.714676l-6.256678-9.268614z m0 0" p-id="22727"></path><path d="M491.64397 320.560191h-0.494715c-14.419461-0.843924-21.825622-8.148232-25.419574-14.113902-15.176083-24.939411 5.820166-73.843356 8.235534-79.343413a8.337388 8.337388 0 0 1 15.234285 6.765943c-7.842674 17.693305-17.285893 50.693646-9.224963 63.905422 1.455041 2.415369 4.365124 5.674662 12.135046 6.125725a8.337388 8.337388 0 0 1-0.480164 16.660225z m0 0M717.84472 469.032625h-0.33466c-34.120723-1.193134-50.548141-17.591452-58.332613-31.152439a64.53109 64.53109 0 0 1-8.468342-29.217233c-1.338638-20.370581 8.351938-48.656587 28.809822-84.028646a493.259066 493.259066 0 0 1 30.555871-46.459475 9.748778 9.748778 0 0 1 16.005457 0.771172c2.910083 4.772536 6.867796 10.563601 11.378424 17.242242 21.243606 31.414346 53.341821 78.89235 49.471411 117.189042a59.744004 59.744004 0 0 1-18.91554 38.107536c-12.455155 11.480277-29.8138 17.5478-50.228032 17.547801z m-0.276458-161.058543c-17.18404 24.735705-44.844379 70.584063-42.981926 96.687507v0.625668a41.846993 41.846993 0 0 0 5.689212 18.682733c7.071502 11.858588 19.803115 18.202569 37.831079 18.915539 30.686825 0 43.389337-17.926111 45.106286-34.659088 2.910083-28.460612-24.110038-68.38695-41.992497-94.883256l-3.579402-5.310901z m-0.130954-6.707741" p-id="22728"></path><path d="M708.081391 426.865522h-0.305558c-9.079459-0.538365-13.706491-5.121746-16.005457-8.890303-9.559623-15.699898 3.652154-46.488576 5.194498-49.951575a5.2527 5.2527 0 0 1 9.588724 4.263272c-4.932591 11.145618-10.88371 31.90906-5.820166 40.231897 0.931227 1.455041 2.720928 3.564852 7.638968 3.85586a5.2527 5.2527 0 0 1-0.305559 10.490849z m0 0M688.118222 194.728203h-0.334659c-34.120723-1.193134-50.548141-17.591452-58.332614-31.152439a64.53109 64.53109 0 0 1-8.468341-29.217233c-1.338638-20.370581 8.351938-48.656587 28.809821-84.028646a493.259066 493.259066 0 0 1 30.555872-46.459475 9.748778 9.748778 0 0 1 16.005456 0.771172c2.910083 4.772536 6.867796 10.563601 11.378424 17.242242 21.243606 31.414346 53.341821 78.89235 49.471411 117.189042a59.744004 59.744004 0 0 1-18.915539 38.107536c-12.455155 11.480277-29.8138 17.5478-50.228033 17.547801z m-0.291008-162.01887c-17.460498 25.099466-45.484597 71.602592-43.651245 98.069796v0.640219a42.44356 42.44356 0 0 0 5.820166 18.915539c7.173355 12.018643 20.079573 18.464477 38.340343 19.133796 31.123338 0 44.000455-18.188019 45.688303-35.153803 2.910083-28.868023-24.444697-69.405479-42.589064-96.236444l-3.637604-5.383654z m-0.116403-5.732864" p-id="22729"></path><path d="M678.340343 152.5611h-0.291008c-9.079459-0.538365-13.706491-5.121746-16.005456-8.890303-9.559623-15.699898 3.652154-46.488576 5.194498-49.951575a5.2527 5.2527 0 0 1 9.588723 4.263272c-4.932591 11.145618-10.88371 31.90906-5.820166 40.231897 0.931227 1.455041 2.720928 3.564852 7.638968 3.85586a5.2527 5.2527 0 0 1-0.305559 10.490849z m0 0M653.226327 627.632147q-5.674662 0-11.334773-0.436512c-77.422758-5.820166-129.338638-70.394907-145.038536-92.657042H15.481641A15.481641 15.481641 0 0 1 0 519.056951c0-8.555644 6.940548-18.391724 15.481641-18.391724h489.621462a15.481641 15.481641 0 0 1 13.182676 7.37706c0.480164 0.785722 50.213482 79.736274 126.122997 85.381835 50.664545 3.768557 102.885984-25.59418 155.165624-87.30249a15.510742 15.510742 0 0 1 11.814937-5.470956h212.043197c8.555644 0 15.496192 9.850631 15.496192 18.391725a15.481641 15.481641 0 0 1-15.496192 15.481641H818.48994c-53.982039 61.824713-109.506423 93.122655-165.263613 93.122656z m0 0M1023.432534 730.910992H15.481641A15.481641 15.481641 0 0 1 0 715.429351c0-8.541094 6.940548-18.391724 15.481641-18.391725h1007.950893c8.555644 0 15.496192 9.850631 15.496192 18.391725s-6.940548 14.0266-15.496192 14.0266z m0 11.640332" p-id="22730"></path></svg>