<?xml version="1.0" standalone="no"?><!DOCTYPE svg PUBLIC "-//W3C//DTD SVG 1.1//EN" "http://www.w3.org/Graphics/SVG/1.1/DTD/svg11.dtd"><svg t="1567081161322" class="icon" viewBox="0 0 1039 1024" version="1.1" xmlns="http://www.w3.org/2000/svg" p-id="4092" xmlns:xlink="http://www.w3.org/1999/xlink" width="202.9296875" height="200"><defs><style type="text/css"></style></defs><path d="M559.246704 939.148776h-308.549906c-84.851224 0-154.274953-69.423729-154.274952-154.274953v-539.962335c0-84.851224 69.423729-154.274953 154.274952-154.274953h308.549906c84.851224 0 154.274953 69.423729 154.274953 154.274953v9.642184c0 21.212806-17.355932 38.568738-38.568738 38.568739s-38.568738-17.355932-38.568738-38.568739v-9.642184c0-42.425612-34.711864-77.137476-77.137477-77.137477h-308.549906c-42.425612 0-77.137476 34.711864-77.137476 77.137477v539.962335c0 42.425612 34.711864 77.137476 77.137476 77.137476h308.549906c42.425612 0 77.137476-34.711864 77.137477-77.137476v-3.856874c0-21.212806 17.355932-38.568738 38.568738-38.568738s38.568738 17.355932 38.568738 38.568738v3.856874c0 84.851224-69.423729 154.274953-154.274953 154.274953z" fill="#388CEB" p-id="4093"></path><path d="M840.798493 553.461394H520.677966c-21.212806 0-38.568738-17.355932-38.568738-38.568739s17.355932-38.568738 38.568738-38.568738h320.120527c21.212806 0 38.568738 17.355932 38.568739 38.568738s-17.355932 38.568738-38.568739 38.568739z" fill="#E78E00" p-id="4094"></path><path d="M752.090395 740.519774c-9.642185 0-19.284369-3.856874-25.069679-9.642185-15.427495-13.499058-17.355932-38.568738-3.856874-53.996233l142.704331-160.060264 1.928437-1.928437-1.928437-1.928437-146.561205-163.917137c-13.499058-15.427495-13.499058-40.497175 3.856874-53.996234 15.427495-13.499058 40.497175-13.499058 53.996233 3.856874l144.632769 161.988701c28.926554 28.926554 28.926554 77.137476 0 106.06403l-142.704332 160.060264c-5.785311 9.642185-17.355932 13.499058-26.998117 13.499058z" fill="#E78E00" p-id="4095"></path></svg>