<?xml version="1.0" standalone="no"?><!DOCTYPE svg PUBLIC "-//W3C//DTD SVG 1.1//EN" "http://www.w3.org/Graphics/SVG/1.1/DTD/svg11.dtd"><svg t="1567083087317" class="icon" viewBox="0 0 1024 1024" version="1.1" xmlns="http://www.w3.org/2000/svg" p-id="25252" xmlns:xlink="http://www.w3.org/1999/xlink" width="200" height="200"><defs><style type="text/css"></style></defs><path d="M512 0C229.2224 0 0 229.2224 0 512s229.239467 512 512 512c282.7776 0 512-229.2224 512-512S794.7776 0 512 0zM285.3888 790.562133a41.198933 41.198933 0 0 1-41.198933-41.198933c0-36.590933 26.692267-52.736 41.198933-100.522667 14.711467 50.090667 41.198933 63.2832 41.198933 100.522667a41.198933 41.198933 0 0 1-41.198933 41.198933zM699.733333 631.466667c-3.072 72.055467-64.187733 136.277333-138.5472 152.302933C490.103467 799.095467 392.5504 768.341333 358.4 699.733333c-33.160533-66.628267-15.086933-139.810133 17.066667-204.8 42.3424-85.6064 107.264-146.7904 136.533333-238.933333 2.986667-9.4208 14.1312-9.540267 17.066667 0 24.593067 79.9744 78.472533 132.846933 119.466666 204.8 29.218133 51.268267 49.902933 94.037333 51.2 153.6 0.1024 4.352-3.908267 7.1168-9.079466 8.4992 5.239467 1.3824 9.2672 4.164267 9.079466 8.567467z m16.128-198.587734a41.198933 41.198933 0 0 1-41.198933-41.198933c0-36.590933 26.692267-52.736 41.198933-100.522667 14.728533 50.090667 41.198933 63.2832 41.198934 100.522667a41.198933 41.198933 0 0 1-41.198934 41.198933zM665.6 614.4c-1.4848-68.590933-30.5152-114.295467-65.2288-171.6736-32.887467-54.340267-59.306667-74.496-80.128-128.4608C499.677867 363.861333 472.183467 390.5024 443.733333 443.733333c-29.8496 55.876267-64.085333 99.054933-68.266666 159.2832-5.5296 79.684267 47.547733 144.128 136.533333 147.9168 86.869333 3.6864 149.879467-32.136533 153.6-119.466666 0.187733-4.352 4.369067-7.099733 9.642667-8.4992-5.3248-1.365333-9.540267-4.164267-9.642667-8.567467z" p-id="25253"></path></svg>