<?xml version="1.0" standalone="no"?><!DOCTYPE svg PUBLIC "-//W3C//DTD SVG 1.1//EN" "http://www.w3.org/Graphics/SVG/1.1/DTD/svg11.dtd"><svg t="1567082124296" class="icon" viewBox="0 0 1024 1024" version="1.1" xmlns="http://www.w3.org/2000/svg" p-id="15337" xmlns:xlink="http://www.w3.org/1999/xlink" width="200" height="200"><defs><style type="text/css"></style></defs><path d="M242.5 646.8c45.7 45.7 38.5 90.4 6.5 122.4s-76.7 39.2-122.4-6.5-61.5-177.4-61.5-177.4 131.7 15.8 177.4 61.5z" fill="#60C13D" p-id="15338"></path><path d="M192.6 805.4c-25.2 0-49.9-11.9-73.4-35.4-47.7-47.7-63.8-178-64.5-183.5-0.4-3.2 0.7-6.3 3-8.6 2.3-2.2 5.4-3.3 8.6-3 5.5 0.7 135.8 16.8 183.5 64.5 23.6 23.6 35.5 48.4 35.4 73.7-0.1 22.6-10.1 44.5-28.9 63.3-18.8 18.8-40.7 28.8-63.3 28.9-0.1 0.1-0.3 0.1-0.4 0.1zM77.3 597.5c5.3 34.1 22.2 123.5 56.6 157.8 21.8 21.8 41.6 29.4 58.6 29.4 21.6 0 38.6-12.3 49.2-22.9 18.9-18.9 43.2-58-6.5-107.7-34.5-34.4-123.8-51.2-157.9-56.6z" fill="" p-id="15339"></path><path d="M401.9 621.2L22.3 1000.8" fill="#FCD170" p-id="15340"></path><path d="M22.3 1011.1c-2.7 0-5.3-1-7.3-3-4-4-4-10.6 0-14.7l379.6-379.6c4-4 10.6-4 14.7 0 4 4 4 10.6 0 14.7L29.7 1008.1c-2.1 2-4.7 3-7.4 3z" fill="" p-id="15341"></path><path d="M898.5 259.4c-47.1 47.1-137.5 77.1-174.7 39.9s-7.2-127.6 39.9-174.7 93.4-33.1 130.7 4.1c37.2 37.3 51.2 83.6 4.1 130.7z" fill="#44C0C6" p-id="15342"></path><path d="M771.4 326.5c-22.9 0-41.8-6.7-54.9-19.8-19.9-19.9-25-53.2-14.4-93.6 9.3-35.3 29.6-71.1 54.3-95.7C780.7 93 806.7 82 833.8 84.8c23.1 2.4 45.9 14.7 67.9 36.7 22 22 34.3 44.8 36.7 67.9 2.8 27-8.2 53.1-32.5 77.4-24.7 24.7-60.5 45-95.7 54.3-14 3.6-26.9 5.4-38.8 5.4z m54.4-221.4c-18.5 0-36.9 9-54.8 26.9-44.1 44.1-71.7 128.2-39.9 160 31.8 31.8 116 4.2 160-39.9 37.1-37.1 35.7-76.1-4.1-116-18.5-18.5-37.1-28.8-55.4-30.7-1.9-0.2-3.9-0.3-5.8-0.3z m72.7 154.3z" fill="" p-id="15343"></path><path d="M733.8 112.3c0 66.6-42.7 151.7-95.3 151.7-52.6 0-95.3-85.1-95.3-151.7s42.7-89.5 95.3-89.5c52.6 0 95.3 22.9 95.3 89.5z" fill="#44C0C6" p-id="15344"></path><path d="M638.5 274.4c-28.2 0-55.3-19.9-76.4-56-18.4-31.5-29.3-71.2-29.3-106.1 0-34.4 10.7-60.6 31.7-77.8 18-14.7 42.9-22.1 73.9-22.1 31.1 0 55.9 7.4 73.9 22.1 21.1 17.1 31.7 43.3 31.7 77.8 0 34.9-11 74.5-29.3 106.1-20.9 36.1-48 56-76.2 56z m0-241.2c-56.4 0-84.9 26.6-84.9 79.1 0 62.3 40 141.3 84.9 141.3 44.9 0 84.9-79 84.9-141.3 0.1-52.5-28.5-79.1-84.9-79.1z" fill="" p-id="15345"></path><path d="M513.4 124.7c47.1 47.1 77.1 137.5 39.9 174.7s-127.6 7.2-174.7-39.9-33.1-93.4 4.1-130.7 83.6-51.2 130.7-4.1z" fill="#44C0C6" p-id="15346"></path><path d="M505.6 326.5c-11.9 0-24.9-1.8-38.7-5.4-35.3-9.3-71.1-29.6-95.7-54.3-24.4-24.4-35.3-50.4-32.5-77.4 2.4-23.1 14.7-45.9 36.7-67.9 22-22 44.8-34.3 67.9-36.7 27-2.8 53.1 8.2 77.4 32.5 24.7 24.7 45 60.5 54.3 95.7 10.7 40.4 5.6 73.7-14.4 93.6-13.2 13.2-32 19.9-55 19.9z m-54.4-221.4c-2 0-3.9 0.1-5.9 0.3-18.2 1.9-36.8 12.2-55.4 30.7-18.5 18.5-28.8 37.1-30.7 55.4-2.1 20.5 6.8 40.9 26.6 60.6 44.1 44.1 128.2 71.7 160 39.9 31.8-31.8 4.2-116-39.9-160-17.7-17.9-36.1-26.9-54.7-26.9z" fill="" p-id="15347"></path><path d="M366.2 289.3c66.6 0 151.7 42.7 151.7 95.3s-85.1 95.3-151.7 95.3-89.5-42.7-89.5-95.3 22.9-95.3 89.5-95.3z" fill="#44C0C6" p-id="15348"></path><path d="M366.2 490.3c-34.4 0-60.6-10.7-77.8-31.7-14.7-18-22.1-42.9-22.1-73.9s7.4-55.9 22.1-73.9c17.1-21.1 43.3-31.7 77.8-31.7 34.9 0 74.5 11 106.1 29.3 36.1 21.1 56 48.2 56 76.4s-19.9 55.3-56 76.4c-31.6 18.1-71.2 29.1-106.1 29.1z m0-190.6c-52.5 0-79.1 28.6-79.1 84.9s26.6 84.9 79.1 84.9c62.3 0 141.3-40 141.3-84.9s-79-84.9-141.3-84.9z" fill="" p-id="15349"></path><path d="M378.6 509.8c47.1-47.1 137.5-77.1 174.7-39.9s7.2 127.6-39.9 174.7c-47.1 47.1-93.4 33.1-130.7-4.1s-51.2-83.6-4.1-130.7z" fill="#44C0C6" p-id="15350"></path><path d="M451.4 684.8c-2.7 0-5.4-0.1-8.2-0.4-23.1-2.4-45.9-14.7-67.9-36.7-22-22-34.3-44.8-36.7-67.9-2.8-27 8.2-53.1 32.5-77.4 24.7-24.7 60.5-45 95.7-54.3 40.4-10.7 73.7-5.6 93.6 14.4 19.9 19.9 25 53.2 14.4 93.6-9.3 35.3-29.6 71.1-54.3 95.7-21.7 22-45 33-69.1 33z m54-221.3c-10.1 0-21.2 1.6-33.1 4.7-31.9 8.4-64.2 26.7-86.4 48.9-19.7 19.7-28.7 40.1-26.6 60.6 1.9 18.2 12.2 36.8 30.7 55.4 18.5 18.5 37.1 28.8 55.4 30.7 20.5 2.1 40.9-6.8 60.6-26.6 44.1-44.1 71.7-128.2 39.9-160-9-9-23.1-13.7-40.5-13.7z m-126.8 46.3z" fill="" p-id="15351"></path><path d="M543.2 656.9c0-66.6 42.7-151.7 95.3-151.7 52.6 0 95.3 85.1 95.3 151.7s-42.7 89.5-95.3 89.5c-52.6 0-95.3-22.9-95.3-89.5z" fill="#44C0C6" p-id="15352"></path><path d="M638.5 756.8c-31.1 0-55.9-7.4-73.9-22.1-21.1-17.1-31.7-43.3-31.7-77.8 0-34.9 11-74.5 29.3-106.1 21.1-36.1 48.2-56 76.4-56 28.2 0 55.3 19.9 76.4 56 18.4 31.5 29.3 71.2 29.3 106.1 0 34.4-10.7 60.6-31.7 77.8-18.2 14.6-43 22.1-74.1 22.1z m0-241.2c-44.9 0-84.9 79-84.9 141.3 0 52.5 28.6 79.1 84.9 79.1 56.4 0 84.9-26.6 84.9-79.1 0.1-62.3-39.9-141.3-84.9-141.3z" fill="" p-id="15353"></path><path d="M763.7 644.6c-47.1-47.1-77.1-137.5-39.9-174.7s127.6-7.2 174.7 39.9 33.1 93.4-4.1 130.7c-37.3 37.1-83.6 51.1-130.7 4.1z" fill="#44C0C6" p-id="15354"></path><path d="M825.6 684.8c-24.1 0-47.4-11.1-69.3-33-24.7-24.7-45-60.5-54.3-95.7-10.7-40.4-5.6-73.7 14.4-93.6 19.9-19.9 53.2-25 93.6-14.4 35.3 9.3 71.1 29.6 95.7 54.3 24.4 24.4 35.3 50.4 32.5 77.4-2.4 23.1-14.7 45.9-36.7 67.9-22 22-44.8 34.3-67.9 36.7-2.6 0.3-5.3 0.4-8 0.4z m-54-221.3c-17.4 0-31.5 4.6-40.5 13.7-14.3 14.3-17.6 41.1-9 73.7 8.4 31.9 26.7 64.2 48.9 86.4 17.9 17.9 36.3 26.9 54.8 26.9 2 0 3.9-0.1 5.9-0.3 18.2-1.9 36.8-12.2 55.4-30.7 39.9-39.9 41.2-78.9 4.1-116-22.2-22.2-54.5-40.5-86.4-48.9-12-3.2-23.1-4.8-33.2-4.8z" fill="" p-id="15355"></path><path d="M910.8 479.9c-66.6 0-151.7-42.7-151.7-95.3s85.1-95.3 151.7-95.3 89.5 42.7 89.5 95.3-22.9 95.3-89.5 95.3z" fill="#44C0C6" p-id="15356"></path><path d="M910.8 490.3c-34.9 0-74.5-11-106.1-29.3-36.1-21.1-56-48.2-56-76.4s19.9-55.3 56-76.4c31.5-18.4 71.2-29.3 106.1-29.3 34.4 0 60.6 10.7 77.8 31.7 14.7 18 22.1 42.9 22.1 73.9s-7.4 55.9-22.1 73.9c-17.2 21.2-43.3 31.9-77.8 31.9z m0-190.6c-62.3 0-141.3 40-141.3 84.9s79 84.9 141.3 84.9c52.5 0 79.1-28.6 79.1-84.9s-26.6-84.9-79.1-84.9z" fill="" p-id="15357"></path><path d="M638.5 384.6m-145.5 0a145.5 145.5 0 1 0 291 0 145.5 145.5 0 1 0-291 0Z" fill="#FCD170" p-id="15358"></path><path d="M638.5 540.5c-41.6 0-80.8-16.2-110.2-45.7-29.4-29.4-45.7-68.6-45.7-110.2s16.2-80.8 45.7-110.2c29.4-29.4 68.6-45.7 110.2-45.7 41.6 0 80.8 16.2 110.2 45.7 60.8 60.8 60.8 159.7 0 220.5-29.4 29.4-68.6 45.6-110.2 45.6z m0-291c-34.6 0-69.2 13.2-95.6 39.5-25.5 25.5-39.6 59.5-39.6 95.6s14.1 70 39.6 95.6c25.5 25.5 59.5 39.6 95.6 39.6 36.1 0 70-14.1 95.6-39.6 52.7-52.7 52.7-138.4 0-191.1-26.4-26.4-61-39.6-95.6-39.6z" fill="" p-id="15359"></path></svg>