<?xml version="1.0" standalone="no"?><!DOCTYPE svg PUBLIC "-//W3C//DTD SVG 1.1//EN" "http://www.w3.org/Graphics/SVG/1.1/DTD/svg11.dtd"><svg t="1567082382151" class="icon" viewBox="0 0 1024 1024" version="1.1" xmlns="http://www.w3.org/2000/svg" p-id="19046" xmlns:xlink="http://www.w3.org/1999/xlink" width="200" height="200"><defs><style type="text/css"></style></defs><path d="M773.740236 476.496391h-51.7752c0-121.247458-98.69686-219.943294-219.943295-219.943294S282.078447 355.249957 282.078447 476.496391h-51.775201c0-149.865239 121.854279-271.718495 271.718495-271.718494s271.718495 121.853255 271.718495 271.718494z" fill="#AEAEAD" p-id="19047"></path><path d="M907.425981 475.181443h-25.8876c0-213.269291-173.426865-386.696156-386.696156-386.696156s-386.697179 173.426865-386.697179 386.696156H82.257445c0-227.52804 185.055716-412.583756 412.583757-412.583756S907.425981 247.653403 907.425981 475.181443z" fill="#AEAEAD" p-id="19048"></path><path d="M684.920328 912.12398l34.902928 49.278333 95.740528-73.593112-34.903951-49.273216-280.676518-396.274302-34.902928-49.278334-95.739504 73.593112 34.901904 49.27731 280.677541 396.270209zM318.836629 393.940141l34.901904 49.278333 95.740528-73.593112-34.904974-49.273217-19.390629-27.378557-34.901905-49.278333-95.739505 73.592088 34.902928 49.278333 19.391653 27.374465zM278.295284 505.078357s-45.097104 163.54275 107.09411 244.321518C215.159338 734.041072 170.06121 897.582799 170.06121 897.582799S215.159338 734.041072 62.968124 653.262304c170.230056 15.359826 215.32716-148.183947 215.32716-148.183947zM877.17705 519.124258s0 87.497796 83.853803 104.997356c-83.853803 17.499559-83.853803 104.997356-83.853803 104.997355s0-87.497796-83.853803-104.997355c83.853803-17.499559 83.853803-104.997356 83.853803-104.997356z" fill="#040000" p-id="19049"></path></svg>