<?xml version="1.0" standalone="no"?><!DOCTYPE svg PUBLIC "-//W3C//DTD SVG 1.1//EN" "http://www.w3.org/Graphics/SVG/1.1/DTD/svg11.dtd"><svg t="1567081639009" class="icon" viewBox="0 0 1024 1024" version="1.1" xmlns="http://www.w3.org/2000/svg" p-id="10229" xmlns:xlink="http://www.w3.org/1999/xlink" width="200" height="200"><defs><style type="text/css"></style></defs><path d="M960 301.76V128a64 64 0 0 0-64-64H128a64 64 0 0 0-64 64v583.488L364.8 486.4a32 32 0 0 1 40.448 1.664l150.464 133.824L960 301.76z m0 81.664l-355.712 281.6 90.56 80.576a32 32 0 1 1-42.56 47.808l-270.08-240.128L64 791.36V896a64 64 0 0 0 64 64h768a64 64 0 0 0 64-64V383.36zM128 0h768a128 128 0 0 1 128 128v768a128 128 0 0 1-128 128H128a128 128 0 0 1-128-128V128a128 128 0 0 1 128-128z m144 352a80 80 0 1 1 0-160 80 80 0 0 1 0 160z" fill="#606266" p-id="10230"></path></svg>