<?xml version="1.0" standalone="no"?><!DOCTYPE svg PUBLIC "-//W3C//DTD SVG 1.1//EN" "http://www.w3.org/Graphics/SVG/1.1/DTD/svg11.dtd"><svg t="1567082263054" class="icon" viewBox="0 0 1024 1024" version="1.1" xmlns="http://www.w3.org/2000/svg" p-id="16882" xmlns:xlink="http://www.w3.org/1999/xlink" width="200" height="200"><defs><style type="text/css"></style></defs><path d="M468.630588 1020.988235v-86.13647h86.136471v86.13647H468.630588z m0-172.272941v-86.13647h86.136471v86.13647H468.630588z m0-171.670588V590.908235h86.136471v86.136471H468.630588z m0-172.272941V418.635294h86.136471v86.136471H468.630588z m0-172.272941V246.362353h86.136471v86.136471H468.630588zM124.687059 375.868235h215.04c28.912941 0 42.767059 14.456471 42.767059 42.767059v430.08c0 28.912941-14.456471 42.767059-42.767059 42.767059H124.687059c-28.912941 0-42.767059-14.456471-42.767059-42.767059V418.635294c0-28.912941 13.854118-42.767059 42.767059-42.767059z" fill="#1790FF" p-id="16883"></path><path d="M684.272941 375.868235h215.04c28.912941 0 42.767059 14.456471 42.767059 42.767059v430.08c0 28.912941-14.456471 42.767059-42.767059 42.767059h-215.04c-28.912941 0-42.767059-14.456471-42.767059-42.767059V418.635294c-0.602353-28.912941 13.854118-42.767059 42.767059-42.767059z" fill="#90C1FF" p-id="16884"></path><path d="M328.884706 108.423529c204.197647-71.077647 379.482353-45.176471 528.263529 77.101177l27.105883-33.129412C721.618824 18.070588 528.263529-9.035294 306.597647 70.475294L266.842353 0.602353 155.407059 189.138824l218.654117-2.409412-45.17647-78.305883z" fill="#1790FF" p-id="16885"></path></svg>