<?xml version="1.0" standalone="no"?><!DOCTYPE svg PUBLIC "-//W3C//DTD SVG 1.1//EN" "http://www.w3.org/Graphics/SVG/1.1/DTD/svg11.dtd"><svg t="1567082504996" class="icon" viewBox="0 0 1024 1024" version="1.1" xmlns="http://www.w3.org/2000/svg" p-id="19675" xmlns:xlink="http://www.w3.org/1999/xlink" width="200" height="200"><defs><style type="text/css"></style></defs><path d="M889.227606 1023.993004H134.706094A133.39975 133.39975 0 0 1 0.006997 889.260589V134.772394A133.433066 133.433066 0 0 1 134.706094 0.006663H889.227606a133.433066 133.433066 0 0 1 134.765731 134.765731v754.488195a133.39975 133.39975 0 0 1-134.765731 134.732415zM134.706094 53.912956c-45.810354 0-80.826122 35.049085-80.826122 80.859438v754.488195c0 45.810354 35.015768 80.826122 80.826122 80.826122H889.227606c45.810354 0 80.892755-35.015768 80.892755-80.826122V134.772394c0-45.810354-35.082402-80.859439-80.892755-80.859438H134.706094z" p-id="19676"></path><path d="M326.010131 498.52326h86.290048v29.685109h-86.290048zM468.838484 498.52326h86.223415v29.685109h-86.223415zM183.248411 498.52326h86.223415v29.685109H183.248411zM614.365484 498.52326h86.290048v29.685109h-86.290048zM757.193837 498.52326h86.223415v29.685109h-86.223415z" p-id="19677"></path></svg>