<?xml version="1.0" standalone="no"?><!DOCTYPE svg PUBLIC "-//W3C//DTD SVG 1.1//EN" "http://www.w3.org/Graphics/SVG/1.1/DTD/svg11.dtd"><svg t="1567081994898" class="icon" viewBox="0 0 1024 1024" version="1.1" xmlns="http://www.w3.org/2000/svg" p-id="13596" xmlns:xlink="http://www.w3.org/1999/xlink" width="200" height="200"><defs><style type="text/css"></style></defs><path d="M646.9632 564.6336c205.0048 4.5056 373.3504-80.896 376.0128-191.0784 2.6624-109.9776-161.5872-202.9568-366.7968-207.4624-205.2096-4.5056-373.5552 80.896-376.0128 191.0784-2.4576 109.9776 161.5872 202.9568 366.7968 207.4624zM595.968 490.0864c-30.3104 21.2992-87.6544 24.9856-128.2048 7.9872-40.5504-16.7936-48.9472-47.7184-18.6368-69.0176 30.3104-21.2992 87.6544-24.9856 128.2048-7.9872 40.5504 16.5888 48.7424 47.5136 18.6368 69.0176z m231.424 16.1792c-41.3696 14.9504-98.5088 8.8064-127.5904-13.7216-29.2864-22.528-19.456-53.248 21.9136-68.1984 41.3696-14.9504 98.5088-9.0112 127.7952 13.7216 29.0816 22.528 19.2512 53.0432-22.1184 68.1984z m1.024-215.2448c48.3328-7.3728 99.7376 7.9872 114.688 34.2016 15.1552 26.2144-11.8784 53.248-60.2112 60.6208-48.3328 7.3728-99.7376-7.7824-114.8928-33.9968-14.7456-26.4192 12.288-53.6576 60.416-60.8256z m-173.4656-86.016c50.5856 1.024 90.9312 23.9616 90.3168 51.2-0.6144 27.0336-42.1888 48.3328-92.7744 47.104-50.5856-1.2288-91.136-24.1664-90.5216-51.2 0.8192-27.0336 42.3936-48.128 92.9792-47.104z m-293.888 106.9056c16.1792-25.3952 68.1984-38.2976 116.1216-29.0816 47.9232 9.4208 73.728 37.888 57.344 63.2832-16.1792 25.3952-68.1984 38.5024-116.1216 28.8768-47.9232-9.4208-73.5232-37.6832-57.344-63.0784z" p-id="13597"></path><path d="M630.1696 617.0624c-228.1472-14.1312-539.4432-179.6096-618.7008 39.7312v53.4528c34.2016-73.5232 75.776-100.1472 91.7504-101.376l-2.6624 137.0112C65.1264 761.0368 18.432 802.816 0 854.2208V892.928c104.448-242.0736 396.9024-69.632 625.0496-55.5008 228.1472 14.1312 387.072-99.5328 387.072-99.5328l0.4096-20.6848h0.2048l-0.2048-169.1648h-0.2048l0.6144-30.5152c0.2048 0-154.624 113.664-382.7712 99.5328zM282.624 729.9072c-48.3328-7.168-94.6176-9.6256-137.0112-2.2528l3.4816-131.4816c42.5984-13.312 88.2688-6.3488 136.3968-0.2048l-2.8672 133.9392z m243.5072 51.2c-63.2832-12.0832-129.024-29.696-192.512-42.3936l3.072-134.144c63.2832 12.9024 128.6144 32.5632 192.512 46.2848l-3.072 130.2528z m244.736 4.5056c-42.8032 7.3728-90.112 11.264-141.7216 9.0112-16.9984-0.8192-34.2016-2.4576-52.0192-4.9152l2.8672-129.2288c17.408 2.4576 34.4064 4.5056 51.2 5.12 51.6096 2.4576 99.1232-1.2288 142.336-8.192l-2.6624 128.2048z m188.6208-61.8496c-32.1536 16.384-78.6432 36.4544-137.0112 51.2l2.8672-127.3856c57.7536-13.5168 104.2432-31.744 137.0112-47.104l-2.8672 123.2896z" p-id="13598"></path></svg>