<?xml version="1.0" standalone="no"?><!DOCTYPE svg PUBLIC "-//W3C//DTD SVG 1.1//EN" "http://www.w3.org/Graphics/SVG/1.1/DTD/svg11.dtd"><svg t="1567083181676" class="icon" viewBox="0 0 1024 1024" version="1.1" xmlns="http://www.w3.org/2000/svg" p-id="29260" xmlns:xlink="http://www.w3.org/1999/xlink" width="200" height="200"><defs><style type="text/css"></style></defs><path d="M515.9 812.4c-152.2 0-276.1-123.8-276.1-276.1 0-152.2 123.8-276.1 276.1-276.1C668.1 260.2 792 384 792 536.3c0 152.2-123.8 276.1-276.1 276.1z" fill="#E3F2FF" p-id="29261"></path><path d="M515.9 270.2c146.7 0 266.1 119.4 266.1 266.1 0 146.7-119.4 266.1-266.1 266.1-146.7 0-266.1-119.4-266.1-266.1 0.1-146.7 119.4-266.1 266.1-266.1m0-20c-157.7 0-286.1 128.3-286.1 286.1 0 157.7 128.3 286.1 286.1 286.1S802 694.1 802 536.3 673.7 250.2 515.9 250.2z" fill="#6FBAFF" p-id="29262"></path><path d="M515.9 169.4c-3.4 0-6.3-2.8-6.3-6.3V60.8c0-3.4 2.8-6.3 6.3-6.3s6.3 2.8 6.3 6.3v102.3c0 3.5-2.8 6.3-6.3 6.3z" fill="#E3F2FF" p-id="29263"></path><path d="M515.9 44.5c-9 0-16.3 7.3-16.3 16.3v102.3c0 9 7.3 16.3 16.3 16.3s16.3-7.3 16.3-16.3V60.8c0-9-7.3-16.3-16.3-16.3z" fill="#6FBAFF" p-id="29264"></path><path d="M51.8 528.2c-3.4 0-6.3-2.8-6.3-6.3s2.8-6.3 6.3-6.3h102.3c3.4 0 6.3 2.8 6.3 6.3s-2.8 6.3-6.3 6.3H51.8z" fill="#E3F2FF" p-id="29265"></path><path d="M154.1 505.7H51.8c-9 0-16.3 7.3-16.3 16.3s7.3 16.3 16.3 16.3h102.3c9 0 16.3-7.3 16.3-16.3s-7.3-16.3-16.3-16.3z" fill="#6FBAFF" p-id="29266"></path><path d="M878.9 528.2c-3.4 0-6.3-2.8-6.3-6.3s2.8-6.3 6.3-6.3h102.3c3.4 0 6.3 2.8 6.3 6.3s-2.8 6.3-6.3 6.3H878.9z" fill="#E3F2FF" p-id="29267"></path><path d="M981.2 505.7H878.9c-9 0-16.3 7.3-16.3 16.3s7.3 16.3 16.3 16.3h102.3c9 0 16.3-7.3 16.3-16.3s-7.3-16.3-16.3-16.3z" fill="#6FBAFF" p-id="29268"></path><path d="M227.6 295.8c-1.6 0-3.1-0.6-4.2-1.6L152 228.8c-2.5-2.3-2.7-6.3-0.4-8.8 1.2-1.3 2.8-2 4.6-2 1.6 0 3.1 0.6 4.2 1.6l71.3 65.4c2.5 2.3 2.7 6.3 0.4 8.8-1.1 1.3-2.7 2-4.5 2z" fill="#E3F2FF" p-id="29269"></path><path d="M156.3 207.9c-4.4 0-8.8 1.8-12 5.3-6.1 6.6-5.6 16.9 1 23l71.3 65.4c3.1 2.9 7.1 4.3 11 4.3 4.4 0 8.8-1.8 12-5.3 6.1-6.6 5.6-16.9-1-23l-71.3-65.3c-3.2-3-7.1-4.4-11-4.4z" fill="#6FBAFF" p-id="29270"></path><path d="M802.4 294.7c-1.6 0-3.1-0.6-4.2-1.6l-0.1-0.1c-2.5-2.3-2.6-6.3-0.3-8.8l65.4-71.2c1.2-1.3 2.8-2 4.6-2 1.6 0 3.1 0.6 4.2 1.6 1.2 1.1 2 2.7 2 4.3s-0.5 3.3-1.6 4.5L807 292.7c-1.2 1.3-2.9 2-4.6 2z" fill="#E3F2FF" p-id="29271"></path><path d="M867.7 201c-4.4 0-8.8 1.8-12 5.3l-65.4 71.2c-6.1 6.6-5.6 16.9 1 23 3.1 2.9 7.1 4.3 11 4.3 4.4 0 8.8-1.8 12-5.3l65.4-71.2c6.1-6.6 5.6-16.9-1-23-3.1-2.9-7-4.3-11-4.3z" fill="#6FBAFF" p-id="29272"></path><path d="M512 969.5c-35.3 0-64-28.7-64-64v-49h128v49c0 35.3-28.7 64-64 64z" fill="#E3F2FF" p-id="29273"></path><path d="M566 866.5v39c0 29.8-24.2 54-54 54s-54-24.2-54-54v-39h108m20-20H438v59c0 40.9 33.1 74 74 74s74-33.1 74-74v-59z" fill="#6FBAFF" p-id="29274"></path></svg>