<?xml version="1.0" standalone="no"?><!DOCTYPE svg PUBLIC "-//W3C//DTD SVG 1.1//EN" "http://www.w3.org/Graphics/SVG/1.1/DTD/svg11.dtd"><svg t="1567081325207" class="icon" viewBox="0 0 1024 1024" version="1.1" xmlns="http://www.w3.org/2000/svg" p-id="6140" xmlns:xlink="http://www.w3.org/1999/xlink" width="200" height="200"><defs><style type="text/css"></style></defs><path d="M400.33 602.36m-266 0a266 266 0 1 0 532 0 266 266 0 1 0-532 0Z" fill="#BAD4FF" p-id="6141"></path><path d="M431.3 585.34m-298.5 0a298.5 298.5 0 1 0 597 0 298.5 298.5 0 1 0-597 0Z" fill="#BAD4FF" p-id="6142"></path><path d="M928 383.08a13.83 13.83 0 0 0-13.83-13.83 13.59 13.59 0 0 0-10.78 5.52l-0.18-0.12-59.45 89.25a13.82 13.82 0 0 1-19 3.93l-95.62-59-0.14 0.17a13.42 13.42 0 0 0-6.6-1.9 13.83 13.83 0 0 0-13.84 13.9 13.58 13.58 0 0 0 5.65 10.86l-0.14 0.2 107.07 66.43a27.67 27.67 0 0 0 38.06-7.86l67-100.59-0.23-0.16a13.52 13.52 0 0 0 2.03-6.8z" fill="#3585F9" p-id="6143"></path><path d="M462.34 153.55c187.86 0 342.33 144.79 358.21 328.62h27.66c-16-199.08-182.75-356.28-385.87-356.28-213.65 0-387.45 173.82-387.45 387.45s173.8 387.45 387.45 387.45c139.13 0 261.12-74.13 329.43-184.56 0.05-0.08 0-0.16 0-0.24a13.59 13.59 0 0 0 1.41-5.85 13.83 13.83 0 0 0-13.83-13.83 13.62 13.62 0 0 0-11.75 7h-0.23C703.76 805 591 873.13 462.34 873.13c-198.39 0-359.79-161.39-359.79-359.79S264 153.55 462.34 153.55z" fill="#3585F9" p-id="6144"></path></svg>