<?xml version="1.0" standalone="no"?><!DOCTYPE svg PUBLIC "-//W3C//DTD SVG 1.1//EN" "http://www.w3.org/Graphics/SVG/1.1/DTD/svg11.dtd"><svg t="1567083374131" class="icon" viewBox="0 0 1024 1024" version="1.1" xmlns="http://www.w3.org/2000/svg" p-id="36297" xmlns:xlink="http://www.w3.org/1999/xlink" width="200" height="200"><defs><style type="text/css"></style></defs><path d="M902.582857 235.52C812.860952 107.27619 668.038095 31.695238 509.561905 31.695238 244.784762 31.695238 29.257143 247.222857 29.257143 512c0 263.801905 213.577143 478.354286 477.379047 480.304762 0.487619 0 19.992381 0 19.992381-19.504762s-18.041905-19.504762-18.529523-19.504762C265.264762 952.32 68.266667 754.834286 68.266667 512c0-243.321905 197.973333-441.295238 441.295238-441.295238 147.748571 0 282.331429 71.68 364.739047 193.097143L780.190476 358.4h214.552381v-214.552381l-92.16 91.672381z" p-id="36298" fill="#1296db"></path><path d="M570.514286 967.92381m-19.504762 0a19.504762 19.504762 0 1 0 39.009524 0 19.504762 19.504762 0 1 0-39.009524 0Z" p-id="36299" fill="#1296db"></path><path d="M653.409524 948.419048m-19.504762 0a19.504762 19.504762 0 1 0 39.009524 0 19.504762 19.504762 0 1 0-39.009524 0Z" p-id="36300" fill="#1296db"></path><path d="M726.552381 919.161905m-14.628571 0a14.628571 14.628571 0 1 0 29.257142 0 14.628571 14.628571 0 1 0-29.257142 0Z" p-id="36301" fill="#1296db"></path><path d="M794.819048 875.27619m-14.628572 0a14.628571 14.628571 0 1 0 29.257143 0 14.628571 14.628571 0 1 0-29.257143 0Z" p-id="36302" fill="#1296db"></path><path d="M848.457143 826.514286m-9.752381 0a9.752381 9.752381 0 1 0 19.504762 0 9.752381 9.752381 0 1 0-19.504762 0Z" p-id="36303" fill="#1296db"></path><path d="M897.219048 768m-9.752381 0a9.752381 9.752381 0 1 0 19.504762 0 9.752381 9.752381 0 1 0-19.504762 0Z" p-id="36304" fill="#1296db"></path><path d="M512 392.533333c-64.365714 0-117.028571 52.662857-117.028571 117.028572s52.662857 117.028571 117.028571 117.028571 117.028571-52.662857 117.028571-117.028571-52.662857-117.028571-117.028571-117.028572z m0 195.047619c-42.910476 0-78.019048-35.108571-78.019048-78.019047s35.108571-78.019048 78.019048-78.019048 78.019048 35.108571 78.019048 78.019048-35.108571 78.019048-78.019048 78.019047z" p-id="36305" fill="#1296db"></path></svg>