<?xml version="1.0" standalone="no"?><!DOCTYPE svg PUBLIC "-//W3C//DTD SVG 1.1//EN" "http://www.w3.org/Graphics/SVG/1.1/DTD/svg11.dtd"><svg t="1567081064394" class="icon" viewBox="0 0 1024 1024" version="1.1" xmlns="http://www.w3.org/2000/svg" p-id="3149" xmlns:xlink="http://www.w3.org/1999/xlink" width="200" height="200"><defs><style type="text/css"></style></defs><path d="M625.777778 455.111111V113.777778h56.888889v398.222222H227.555556V113.777778h56.888888v341.333333h341.333334z m0-341.333333h56.888889v398.222222H227.555556V113.777778h56.888888v341.333333h341.333334V113.777778z" fill="#1296db" p-id="3150"></path><path d="M512 227.555556h56.888889v170.666666H512zM398.222222 682.666667h512v56.888889H398.222222zM56.888889 113.777778h56.888889v796.444444H56.888889zM113.777778 853.333333h512v56.888889H113.777778zM113.777778 113.777778h682.666666v56.888889H113.777778zM796.444444 113.777778h56.888889v284.444444h-56.888889z" fill="#1296db" p-id="3151"></path><path d="M961.422222 733.866667l17.066667-22.755556L779.377778 512l-39.822222 39.822222 159.288888 159.288889-159.288888 164.977778 39.822222 39.822222z" fill="#1296db" p-id="3152"></path></svg>