<?xml version="1.0" standalone="no"?><!DOCTYPE svg PUBLIC "-//W3C//DTD SVG 1.1//EN" "http://www.w3.org/Graphics/SVG/1.1/DTD/svg11.dtd"><svg t="1567082430638" class="icon" viewBox="0 0 1024 1024" version="1.1" xmlns="http://www.w3.org/2000/svg" p-id="19534" xmlns:xlink="http://www.w3.org/1999/xlink" width="200" height="200"><defs><style type="text/css"></style></defs><path d="M0 1024h484.693333V539.306667H0V1024z m436.906667-276.48l-228.693334 232.106667H126.293333l314.026667-307.2v75.093333z m0 23.893333v92.16l-112.64 116.053334H235.52l201.386667-208.213334zM44.373333 709.973333l122.88-126.293333h81.92l-204.8 208.213333v-81.92z m0 109.226667L273.066667 587.093333h102.4l-331.093334 327.68V819.2z m98.986667-232.106667l-95.573333 98.986667v-98.986667h95.573333zM44.373333 938.666667l358.4-351.573334h37.546667v58.026667L102.4 979.626667H44.373333v-40.96z m303.786667 40.96l88.746667-92.16v92.16h-88.746667z m191.146667-494.933334H1024V0H539.306667v484.693333zM979.626667 204.8L750.933333 436.906667h-85.333333l314.026667-307.2V204.8z m0 27.306667v92.16l-112.64 116.053333h-88.746667l201.386667-208.213333zM587.093333 170.666667l122.88-126.293334h81.92l-204.8 208.213334V170.666667z m0 105.813333l228.693334-232.106667h102.4l-331.093334 327.68V276.48zM682.666667 44.373333l-95.573334 98.986667V44.373333H682.666667z m-95.573334 351.573334L942.08 44.373333h37.546667V102.4l-337.92 334.506667h-54.613334v-40.96z m303.786667 40.96l88.746667-92.16v92.16h-88.746667z m-303.786667 542.72h392.533334V587.093333H587.093333v392.533334zM539.306667 1024H1024V539.306667H539.306667V1024zM44.373333 436.906667h392.533334V44.373333H44.373333v392.533334zM0 484.693333h484.693333V0H0v484.693333z" fill="#323333" p-id="19535"></path></svg>