<?xml version="1.0" standalone="no"?><!DOCTYPE svg PUBLIC "-//W3C//DTD SVG 1.1//EN" "http://www.w3.org/Graphics/SVG/1.1/DTD/svg11.dtd"><svg t="1567082316674" class="icon" viewBox="0 0 1244 1024" version="1.1" xmlns="http://www.w3.org/2000/svg" p-id="17609" xmlns:xlink="http://www.w3.org/1999/xlink" width="242.96875" height="200"><defs><style type="text/css"></style></defs><path d="M259.21484338 93.73437463h418.35937555c28.12499973 0 41.60156259 14.06250027 41.60156259 41.6015626v209.17968777c0 28.12499973-14.06250027 41.60156259-41.60156258 41.60156259h-418.35937556c-28.12499973 0-41.60156259-14.06250027-41.60156176-41.60156259v-209.17968777c0-28.12499973 13.47656287-41.60156259 41.60156176-41.6015626z" fill="#1790FF" p-id="17610"></path><path d="M259.21484338 637.48437537h418.35937555c28.12499973 0 41.60156259 14.06250027 41.60156259 41.60156176v209.17968778c0 28.12499973-14.06250027 41.60156259-41.60156258 41.60156259h-418.35937556c-28.12499973 0-41.60156259-14.06250027-41.60156176-41.60156259v-209.17968778c0-27.53906231 13.47656287-41.60156259 41.60156176-41.60156176z" fill="#90C1FF" p-id="17611"></path><path d="M91.63671902 469.90625019h83.7890626v83.78906258H91.63671902v-83.78906258z m167.57812436 0h83.7890626v83.78906258h-83.7890626v-83.78906258z m167.57812519 0h83.78906259v83.78906258h-83.78906259v-83.78906258z m166.99218777 0h83.7890626v83.78906258h-83.7890626v-83.78906258z m167.57812518 0h83.7890626v83.78906258h-83.7890626v-83.78906258zM1007.45703098 345.68749981c69.14062491 198.63281277 43.94531223 369.140625-74.99999982 513.86718796l32.22656241 26.3671875c130.66406269-158.203125 157.03125019-346.28906277 79.68749991-561.91406286l67.96875009-39.25781214-183.39843769-108.39843786 2.34375046 212.69531222 76.17187464-43.35937482z" fill="#1790FF" p-id="17612"></path></svg>