<?xml version="1.0" standalone="no"?><!DOCTYPE svg PUBLIC "-//W3C//DTD SVG 1.1//EN" "http://www.w3.org/Graphics/SVG/1.1/DTD/svg11.dtd"><svg t="1567081741272" class="icon" viewBox="0 0 1024 1024" version="1.1" xmlns="http://www.w3.org/2000/svg" p-id="11637" xmlns:xlink="http://www.w3.org/1999/xlink" width="200" height="200"><defs><style type="text/css"></style></defs><path d="M207.4 255.1c0 27.4 22.2 49.6 49.6 49.6s49.6-22.2 49.6-49.6-22.2-49.6-49.6-49.6-49.6 22.2-49.6 49.6zM98 513.2c0 27.4 23.1 49.6 51.6 49.6s51.6-22.2 51.6-49.6c0-27.4-23.1-49.6-51.6-49.6S98 485.8 98 513.2zM737 292.6c19.4 19.4 50.7 19.4 70.1 0 19.4-19.4 19.4-50.7 0-70.1s-50.7-19.4-70.1 0c-19.4 19.4-19.4 50.7 0 70.1zM463.5 149.8c0 28.5 23.1 51.6 51.6 51.6s51.6-23.1 51.6-51.6-23.1-51.6-51.6-51.6-51.6 23.1-51.6 51.6zM221.4 805.8c19.4 19.4 50.7 19.4 70.1 0 19.4-19.4 19.4-50.7 0-70.1-19.4-19.4-50.7-19.4-70.1 0-19.3 19.4-19.3 50.8 0 70.1zM736 736.2c-20.6 18.6-20.6 51.6 0 70.2s53.7 18.6 72.3 0c20.6-18.6 20.6-51.6 0-70.2s-53.7-18.6-72.3 0zM463.5 878.7c0 27.4 22.2 49.6 49.6 49.6s49.6-22.2 49.6-49.6c0-27.4-22.2-49.6-49.6-49.6-27.4 0-49.6 22.2-49.6 49.6zM829 515.3c0 27.4 22.2 49.6 49.6 49.6 27.4 0 49.6-22.2 49.6-49.6s-22.2-49.6-49.6-49.6c-27.5 0-49.6 22.2-49.6 49.6zM511.1 243.8c-148.7 0-270.5 119.8-270.5 270.5 0 148.7 119.8 270.5 270.5 270.5 148.7 0 270.5-119.8 270.5-270.5-2.1-150.8-121.8-270.5-270.5-270.5z m0 456.3c-103.2 0-187.9-84.7-187.9-187.9s84.7-187.9 187.9-187.9S699 408.9 699 512.2c-2.1 103.2-84.7 187.9-187.9 187.9z" p-id="11638" fill="#d21e07"></path></svg>