<?xml version="1.0" standalone="no"?><!DOCTYPE svg PUBLIC "-//W3C//DTD SVG 1.1//EN" "http://www.w3.org/Graphics/SVG/1.1/DTD/svg11.dtd"><svg t="1567083724360" class="icon" viewBox="0 0 1024 1024" version="1.1" xmlns="http://www.w3.org/2000/svg" p-id="41995" xmlns:xlink="http://www.w3.org/1999/xlink" width="200" height="200"><defs><style type="text/css"></style></defs><path d="M0 0m113.664 0l796.672 0q113.664 0 113.664 113.664l0 796.672q0 113.664-113.664 113.664l-796.672 0q-113.664 0-113.664-113.664l0-796.672q0-113.664 113.664-113.664Z" fill="#488AFD" p-id="41996"></path><path d="M688.384 320.768l-54.272 256a218.88 218.88 0 0 0-5.632 41.216h-1.28a266.752 266.752 0 0 0-6.144-39.68l-63.488-256h-84.992l-69.632 253.184a209.408 209.408 0 0 0-7.424 43.52h-1.792a271.872 271.872 0 0 0-5.12-42.24l-55.808-256H245.248l100.096 375.552h92.16l65.536-244.992a260.352 260.352 0 0 0 6.656-41.728 184.32 184.32 0 0 0 6.144 41.472l63.744 244.992h89.088l99.84-375.552z" fill="#FFFFFF" p-id="41997"></path><path d="M0 0m113.664 0l796.672 0q113.664 0 113.664 113.664l0 796.672q0 113.664-113.664 113.664l-796.672 0q-113.664 0-113.664-113.664l0-796.672q0-113.664 113.664-113.664Z" fill="#FD6767" p-id="41998"></path><path d="M732.416 555.264a541.696 541.696 0 0 0-102.4 11.52 495.872 495.872 0 0 1-102.4-131.328c27.648-91.648 29.184-153.6 7.936-183.552A54.016 54.016 0 0 0 493.568 230.4a51.2 51.2 0 0 0-51.2 25.6c-29.44 49.152 13.056 145.92 32.768 185.344a1171.456 1171.456 0 0 1-86.528 203.264C233.728 712.704 230.4 753.664 230.4 768a47.872 47.872 0 0 0 27.904 44.288A40.192 40.192 0 0 0 281.6 819.2c40.96 0 88.32-45.824 139.008-136.192a1194.496 1194.496 0 0 1 194.56-62.208 210.176 210.176 0 0 0 121.088 49.152c27.904 0 81.664 0 81.664-55.808 2.816-21.248-8.704-57.344-85.504-58.88z m-448 214.784l-4.864 1.536a128 128 0 0 1 58.88-47.36 107.008 107.008 0 0 1-54.016 45.824zM486.4 281.6a11.008 11.008 0 0 1 6.656-1.536h4.864a138.496 138.496 0 0 1-1.536 85.248A135.168 135.168 0 0 1 486.4 281.6z m85.248 318.208a963.328 963.328 0 0 0-111.36 32.768v-3.328l-3.328 1.536c18.176-35.84 34.56-73.728 49.152-111.36l1.536 1.536 1.792-3.072a517.12 517.12 0 0 0 65.28 80.128h-4.864z m166.656 21.248a135.168 135.168 0 0 1-49.152-13.056 185.344 185.344 0 0 1 42.752-3.328c32.512 0 39.168 8.192 39.168 13.056a72.96 72.96 0 0 1-33.792 3.072z" fill="#FFFFFF" p-id="41999"></path><path d="M0 0m113.664 0l796.672 0q113.664 0 113.664 113.664l0 796.672q0 113.664-113.664 113.664l-796.672 0q-113.664 0-113.664-113.664l0-796.672q0-113.664 113.664-113.664Z" fill="#12BCFB" p-id="42000"></path><path d="M389.376 428.032a98.816 98.816 0 1 0-100.352-98.56 99.584 99.584 0 0 0 100.352 98.56zM844.8 363.776c-33.024-70.144-89.088-8.448-99.84 4.864l-224 251.136-124.928-91.648a31.232 31.232 0 0 0-41.984 4.608L212.224 742.4a30.208 30.208 0 0 0 3.328 43.008 31.488 31.488 0 0 0 19.968 8.192H844.8v-242.432-187.392z" fill="#FFFFFF" p-id="42001"></path></svg>